<svg width="172" height="27" viewBox="0 0 172 27" fill="none" xmlns="http://www.w3.org/2000/svg">
<path d="M5.08 26.64H0V0.280004H5.08V3.8L10.68 0.760005C11.24 0.46667 11.8 0.26667 12.36 0.160003C12.9467 0.0533358 13.4933 0.0533358 14 0.160003C14.5333 0.240003 15 0.42667 15.4 0.720003C15.8267 0.986671 16.16 1.33334 16.4 1.76C16.64 2.21334 16.76 2.69334 16.76 3.2C16.76 3.68 16.6533 4.16 16.44 4.64C16.2267 5.12 15.92 5.58667 15.52 6.04C15.12 6.46667 14.64 6.82667 14.08 7.12L7.88 10.48C7.45333 10.6933 7.24 11.04 7.24 11.52C7.29333 11.9467 7.46667 12.2533 7.76 12.44C8.13333 12.6533 8.54667 12.68 9 12.52C10.3067 12.0133 11.44 11.8533 12.4 12.04C13.36 12.2267 14.1867 12.6667 14.88 13.36C15.6 14.0267 16.2 14.8933 16.68 15.96C17.16 17.0267 17.56 18.1733 17.88 19.4C18.2 20.6 18.4533 21.84 18.64 23.12C18.8533 24.3733 19.0267 25.5467 19.16 26.64H14.08C13.9467 25.8133 13.8 24.88 13.64 23.84C13.48 22.7733 13.2933 21.7067 13.08 20.64C12.8667 19.5467 12.6267 18.5067 12.36 17.52C12.12 16.5067 11.84 15.64 11.52 14.92C11.2 14.1733 10.84 13.6267 10.44 13.28C10.0667 12.9067 9.65333 12.8267 9.2 13.04C8.61333 13.28 8.02667 13.2267 7.44 12.88C6.96 12.5867 6.72 12.1467 6.72 11.56C6.69333 11.2133 6.76 10.9067 6.92 10.64C7.08 10.3733 7.30667 10.16 7.6 10C7.84 9.84 8.06667 9.70667 8.28 9.6C8.46667 9.49334 8.64 9.4 8.8 9.32C8.98667 9.21334 9.12 9.13334 9.2 9.08C10.5067 8.22667 11.36 7.34667 11.76 6.44C12.16 5.50667 12.2133 4.72 11.92 4.08C11.6267 3.44 11.0133 3.02667 10.08 2.84C9.17333 2.65334 8.06667 2.88 6.76 3.52C6.54667 3.62667 6.29333 3.76 6 3.92C5.73333 4.05334 5.42667 4.21334 5.08 4.4V26.64ZM28.8009 26.84C27.5743 26.84 26.4276 26.5733 25.3609 26.04C24.2943 25.48 23.3609 24.7333 22.5609 23.8C21.7609 22.8667 21.1209 21.7733 20.6409 20.52C20.1876 19.2667 19.9609 17.92 19.9609 16.48C19.9609 15.36 20.0543 14.4933 20.2409 13.88C20.4543 13.2667 20.7876 12.8533 21.2409 12.64C21.5076 12.5333 21.8143 12.52 22.1609 12.6C22.5076 12.68 22.8809 12.8267 23.2809 13.04C23.6809 13.2533 24.0943 13.52 24.5209 13.84C24.9476 14.16 25.3876 14.48 25.8409 14.8C26.2943 15.12 26.7343 15.44 27.1609 15.76C27.6143 16.0533 28.0143 16.3067 28.3609 16.52C28.7343 16.7333 29.0676 16.8933 29.3609 17C29.6543 17.08 29.8809 17.0533 30.0409 16.92C30.2276 16.76 30.3076 16.56 30.2809 16.32C30.2809 16.16 30.2143 15.9867 30.0809 15.8C29.9476 15.5867 29.7209 15.32 29.4009 15C29.0809 14.68 28.6543 14.3067 28.1209 13.88C27.6143 13.4267 26.9609 12.88 26.1609 12.24C26.0543 12.16 25.8409 11.9867 25.5209 11.72C25.2009 11.4533 24.8943 11.1467 24.6009 10.8C24.3076 10.4267 24.0809 10.0267 23.9209 9.6C23.7876 9.14667 23.8409 8.70667 24.0809 8.28C24.3743 7.66667 24.9076 7.16 25.6809 6.76C26.4543 6.33334 27.4943 6.12 28.8009 6.12C30.0276 6.12 31.1743 6.4 32.2409 6.96C33.3343 7.49334 34.2809 8.22667 35.0809 9.16C35.8809 10.0933 36.5076 11.1867 36.9609 12.44C37.4409 13.6933 37.6809 15.04 37.6809 16.48C37.6809 17.92 37.4409 19.2667 36.9609 20.52C36.5076 21.7733 35.8809 22.8667 35.0809 23.8C34.2809 24.7333 33.3343 25.48 32.2409 26.04C31.1743 26.5733 30.0276 26.84 28.8009 26.84ZM25.4409 15.2C25.0943 14.9333 24.8143 14.76 24.6009 14.68C24.3876 14.5733 24.2676 14.6533 24.2409 14.92C24.2143 15.1867 24.3076 15.68 24.5209 16.4C24.7609 17.12 25.1476 18.1333 25.6809 19.44C26.2943 20.9867 26.9876 22.2 27.7609 23.08C28.5343 23.9333 29.2943 24.5333 30.0409 24.88C30.7876 25.2267 31.4676 25.36 32.0809 25.28C32.7209 25.2 33.2143 24.9867 33.5609 24.64C34.0676 24.1067 34.3343 23.3733 34.3609 22.44C34.4143 21.48 34.3209 20.4667 34.0809 19.4C33.8409 18.3333 33.5076 17.28 33.0809 16.24C32.6809 15.2 32.2943 14.32 31.9209 13.6C31.2809 12.3733 30.5743 11.3067 29.8009 10.4C29.0543 9.49334 28.3209 8.81334 27.6009 8.36C26.8809 7.90667 26.2409 7.69334 25.6809 7.72C25.1209 7.74667 24.7209 8.06667 24.4809 8.68001C24.3476 9 24.3609 9.32 24.5209 9.64C24.6809 9.96 24.8809 10.2667 25.1209 10.56C25.3609 10.8533 25.6143 11.12 25.8809 11.36C26.1476 11.5733 26.3476 11.72 26.4809 11.8C27.9209 12.92 29.0009 13.8267 29.7209 14.52C30.4676 15.2133 30.8676 15.8267 30.9209 16.36C30.9476 16.68 30.8143 16.9867 30.5209 17.28C30.2276 17.52 29.8943 17.6267 29.5209 17.6C29.1476 17.5467 28.7343 17.4133 28.2809 17.2C27.8543 16.96 27.3876 16.6667 26.8809 16.32C26.4009 15.9733 25.9209 15.6 25.4409 15.2ZM40.3472 18.56C41.2539 17.6267 42.1872 16.6667 43.1472 15.68C44.1072 14.6933 45.0139 13.7733 45.8672 12.92C46.7205 12.0667 47.4805 11.3067 48.1472 10.64C48.8405 9.94667 49.3605 9.42667 49.7072 9.08C49.5739 8.6 49.4139 8.16 49.2272 7.76C49.0405 7.33334 48.8405 7.01334 48.6272 6.8C48.4139 6.56 48.1872 6.44 47.9472 6.44C47.7339 6.41334 47.5072 6.54667 47.2672 6.84C46.5472 7.74667 45.8939 8.57334 45.3072 9.32C44.7205 10.0667 44.2139 10.7067 43.7872 11.24C43.3072 11.88 42.8539 12.44 42.4272 12.92L40.2272 9.44L47.0672 6.32C48.0272 5.86667 49.0272 5.70667 50.0672 5.84C51.1339 5.97334 52.0939 6.38667 52.9472 7.08C53.6139 7.61334 54.1205 8.28 54.4672 9.08C54.8405 9.85334 55.0272 10.6667 55.0272 11.52V26.64H50.0272V23.56C49.5472 24.0667 49.0672 24.5467 48.5872 25C48.1339 25.4267 47.7205 25.7733 47.3472 26.04C46.3339 26.68 45.2405 27 44.0672 27C42.8672 27 41.8272 26.68 40.9472 26.04C40.4939 25.6933 40.0805 25.24 39.7072 24.68C39.3339 24.0933 39.0805 23.4667 38.9472 22.8C38.8139 22.1333 38.8405 21.44 39.0272 20.72C39.2405 19.9733 39.6805 19.2533 40.3472 18.56ZM50.0272 11.52C50.0272 10.96 49.9605 10.3467 49.8272 9.68C49.5339 9.94667 49.1739 10.28 48.7472 10.68C48.3472 11.08 47.8805 11.5467 47.3472 12.08C46.3072 13.1467 45.5605 14.2533 45.1072 15.4C44.6805 16.5467 44.4539 17.6533 44.4272 18.72C44.4272 19.76 44.6005 20.7067 44.9472 21.56C45.2939 22.4133 45.7339 23.0667 46.2672 23.52C46.8005 23.9467 47.4005 24.1333 48.0672 24.08C48.7339 24 49.3872 23.5733 50.0272 22.8V11.52ZM62.5019 26.64H57.4219V6.32H62.5019V9.16C62.9552 8.81334 63.4485 8.45334 63.9819 8.08C64.5419 7.68 65.1152 7.33334 65.7019 7.04C66.3152 6.72 66.9285 6.46667 67.5419 6.28C68.1552 6.09334 68.7685 6.01334 69.3819 6.04C71.3552 6.12 72.8085 6.89334 73.7419 8.36C74.2485 9.16 74.6085 10.04 74.8219 11C75.0619 11.9333 75.1952 12.9067 75.2219 13.92C75.2752 14.9067 75.2485 15.92 75.1419 16.96C75.0352 17.9733 74.8885 18.9467 74.7019 19.88C74.2485 22.0933 73.5685 24.3467 72.6619 26.64H67.4619C67.7552 25.9467 68.1019 24.9333 68.5019 23.6C68.9285 22.24 69.3152 20.76 69.6619 19.16C70.0085 17.56 70.2752 15.96 70.4619 14.36C70.6485 12.76 70.6619 11.3467 70.5019 10.12C70.3685 8.89334 70.0085 7.98667 69.4219 7.4C68.8352 6.78667 67.9552 6.69334 66.7819 7.12C65.9552 7.41334 65.1685 7.82667 64.4219 8.36C63.7019 8.86667 63.0619 9.34667 62.5019 9.8V26.64ZM82.7753 26.64H77.6953V6.32H82.7753V9.16C83.2286 8.81334 83.722 8.45334 84.2553 8.08C84.8153 7.68 85.3886 7.33334 85.9753 7.04C86.5886 6.72 87.202 6.46667 87.8153 6.28C88.4286 6.09334 89.042 6.01334 89.6553 6.04C91.6286 6.12 93.082 6.89334 94.0153 8.36C94.522 9.16 94.882 10.04 95.0953 11C95.3353 11.9333 95.4686 12.9067 95.4953 13.92C95.5486 14.9067 95.522 15.92 95.4153 16.96C95.3086 17.9733 95.162 18.9467 94.9753 19.88C94.522 22.0933 93.842 24.3467 92.9353 26.64H87.7353C88.0286 25.9467 88.3753 24.9333 88.7753 23.6C89.202 22.24 89.5886 20.76 89.9353 19.16C90.282 17.56 90.5486 15.96 90.7353 14.36C90.922 12.76 90.9353 11.3467 90.7753 10.12C90.642 8.89334 90.282 7.98667 89.6953 7.4C89.1086 6.78667 88.2286 6.69334 87.0553 7.12C86.2286 7.41334 85.442 7.82667 84.6953 8.36C83.9753 8.86667 83.3353 9.34667 82.7753 9.8V26.64ZM106.418 26.84C105.191 26.84 104.045 26.5733 102.978 26.04C101.911 25.48 100.978 24.7333 100.178 23.8C99.3781 22.8667 98.7381 21.7733 98.2581 20.52C97.8048 19.2667 97.5781 17.92 97.5781 16.48C97.5781 15.36 97.6715 14.4933 97.8581 13.88C98.0715 13.2667 98.4048 12.8533 98.8581 12.64C99.1248 12.5333 99.4315 12.52 99.7781 12.6C100.125 12.68 100.498 12.8267 100.898 13.04C101.298 13.2533 101.711 13.52 102.138 13.84C102.565 14.16 103.005 14.48 103.458 14.8C103.911 15.12 104.351 15.44 104.778 15.76C105.231 16.0533 105.631 16.3067 105.978 16.52C106.351 16.7333 106.685 16.8933 106.978 17C107.271 17.08 107.498 17.0533 107.658 16.92C107.845 16.76 107.925 16.56 107.898 16.32C107.898 16.16 107.831 15.9867 107.698 15.8C107.565 15.5867 107.338 15.32 107.018 15C106.698 14.68 106.271 14.3067 105.738 13.88C105.231 13.4267 104.578 12.88 103.778 12.24C103.671 12.16 103.458 11.9867 103.138 11.72C102.818 11.4533 102.511 11.1467 102.218 10.8C101.925 10.4267 101.698 10.0267 101.538 9.6C101.405 9.14667 101.458 8.70667 101.698 8.28C101.991 7.66667 102.525 7.16 103.298 6.76C104.071 6.33334 105.111 6.12 106.418 6.12C107.645 6.12 108.791 6.4 109.858 6.96C110.951 7.49334 111.898 8.22667 112.698 9.16C113.498 10.0933 114.125 11.1867 114.578 12.44C115.058 13.6933 115.298 15.04 115.298 16.48C115.298 17.92 115.058 19.2667 114.578 20.52C114.125 21.7733 113.498 22.8667 112.698 23.8C111.898 24.7333 110.951 25.48 109.858 26.04C108.791 26.5733 107.645 26.84 106.418 26.84ZM103.058 15.2C102.711 14.9333 102.431 14.76 102.218 14.68C102.005 14.5733 101.885 14.6533 101.858 14.92C101.831 15.1867 101.925 15.68 102.138 16.4C102.378 17.12 102.765 18.1333 103.298 19.44C103.911 20.9867 104.605 22.2 105.378 23.08C106.151 23.9333 106.911 24.5333 107.658 24.88C108.405 25.2267 109.085 25.36 109.698 25.28C110.338 25.2 110.831 24.9867 111.178 24.64C111.685 24.1067 111.951 23.3733 111.978 22.44C112.031 21.48 111.938 20.4667 111.698 19.4C111.458 18.3333 111.125 17.28 110.698 16.24C110.298 15.2 109.911 14.32 109.538 13.6C108.898 12.3733 108.191 11.3067 107.418 10.4C106.671 9.49334 105.938 8.81334 105.218 8.36C104.498 7.90667 103.858 7.69334 103.298 7.72C102.738 7.74667 102.338 8.06667 102.098 8.68001C101.965 9 101.978 9.32 102.138 9.64C102.298 9.96 102.498 10.2667 102.738 10.56C102.978 10.8533 103.231 11.12 103.498 11.36C103.765 11.5733 103.965 11.72 104.098 11.8C105.538 12.92 106.618 13.8267 107.338 14.52C108.085 15.2133 108.485 15.8267 108.538 16.36C108.565 16.68 108.431 16.9867 108.138 17.28C107.845 17.52 107.511 17.6267 107.138 17.6C106.765 17.5467 106.351 17.4133 105.898 17.2C105.471 16.96 105.005 16.6667 104.498 16.32C104.018 15.9733 103.538 15.6 103.058 15.2ZM123.393 26.6L115.312 6.32H120.793L128.273 25.04C128.566 24.5333 128.913 23.8933 129.313 23.12C129.713 22.3467 130.126 21.5733 130.553 20.8C131.086 19.76 131.379 18.8667 131.433 18.12C131.513 17.3733 131.433 16.72 131.193 16.16C130.953 15.6 130.606 15.12 130.153 14.72C129.726 14.32 129.273 13.9467 128.793 13.6C127.646 12.7733 126.979 11.72 126.793 10.44C126.633 9.13334 127.046 7.76 128.033 6.32H133.553C132.993 6.8 132.633 7.29334 132.473 7.8C132.313 8.28 132.273 8.77334 132.353 9.28C132.433 9.78667 132.566 10.3067 132.753 10.84C132.966 11.3733 133.153 11.9333 133.313 12.52C133.499 13.08 133.606 13.68 133.633 14.32C133.686 14.9333 133.579 15.5867 133.313 16.28C133.099 16.76 132.779 17.44 132.353 18.32C131.926 19.2 131.459 20.12 130.953 21.08C130.473 22.0133 130.006 22.92 129.553 23.8C129.099 24.6533 128.753 25.2933 128.513 25.72L128.873 26.6H123.393ZM141.135 26.64H136.055V6.32H141.135V9.16C141.588 8.81334 142.081 8.45334 142.615 8.08C143.175 7.68 143.748 7.33334 144.335 7.04C144.948 6.72 145.561 6.46667 146.175 6.28C146.788 6.09334 147.401 6.01334 148.015 6.04C149.988 6.12 151.441 6.89334 152.375 8.36C152.881 9.16 153.241 10.04 153.455 11C153.695 11.9333 153.828 12.9067 153.855 13.92C153.908 14.9067 153.881 15.92 153.775 16.96C153.668 17.9733 153.521 18.9467 153.335 19.88C152.881 22.0933 152.201 24.3467 151.295 26.64H146.095C146.388 25.9467 146.735 24.9333 147.135 23.6C147.561 22.24 147.948 20.76 148.295 19.16C148.641 17.56 148.908 15.96 149.095 14.36C149.281 12.76 149.295 11.3467 149.135 10.12C149.001 8.89334 148.641 7.98667 148.055 7.4C147.468 6.78667 146.588 6.69334 145.415 7.12C144.588 7.41334 143.801 7.82667 143.055 8.36C142.335 8.86667 141.695 9.34667 141.135 9.8V26.64ZM156.597 18.56C157.504 17.6267 158.437 16.6667 159.397 15.68C160.357 14.6933 161.264 13.7733 162.117 12.92C162.971 12.0667 163.731 11.3067 164.397 10.64C165.091 9.94667 165.611 9.42667 165.957 9.08C165.824 8.6 165.664 8.16 165.477 7.76C165.291 7.33334 165.091 7.01334 164.877 6.8C164.664 6.56 164.437 6.44 164.197 6.44C163.984 6.41334 163.757 6.54667 163.517 6.84C162.797 7.74667 162.144 8.57334 161.557 9.32C160.971 10.0667 160.464 10.7067 160.037 11.24C159.557 11.88 159.104 12.44 158.677 12.92L156.477 9.44L163.317 6.32C164.277 5.86667 165.277 5.70667 166.317 5.84C167.384 5.97334 168.344 6.38667 169.197 7.08C169.864 7.61334 170.371 8.28 170.717 9.08C171.091 9.85334 171.277 10.6667 171.277 11.52V26.64H166.277V23.56C165.797 24.0667 165.317 24.5467 164.837 25C164.384 25.4267 163.971 25.7733 163.597 26.04C162.584 26.68 161.491 27 160.317 27C159.117 27 158.077 26.68 157.197 26.04C156.744 25.6933 156.331 25.24 155.957 24.68C155.584 24.0933 155.331 23.4667 155.197 22.8C155.064 22.1333 155.091 21.44 155.277 20.72C155.491 19.9733 155.931 19.2533 156.597 18.56ZM166.277 11.52C166.277 10.96 166.211 10.3467 166.077 9.68C165.784 9.94667 165.424 10.28 164.997 10.68C164.597 11.08 164.131 11.5467 163.597 12.08C162.557 13.1467 161.811 14.2533 161.357 15.4C160.931 16.5467 160.704 17.6533 160.677 18.72C160.677 19.76 160.851 20.7067 161.197 21.56C161.544 22.4133 161.984 23.0667 162.517 23.52C163.051 23.9467 163.651 24.1333 164.317 24.08C164.984 24 165.637 23.5733 166.277 22.8V11.52Z" fill="black"/>
</svg>
