<svg width="118" height="118" viewBox="0 0 118 118" fill="none" xmlns="http://www.w3.org/2000/svg">
<path d="M100.898 116.273H16.3359C7.87969 116.273 0.960938 109.355 0.960938 100.898V16.3359C0.960938 7.87969 7.87969 0.960938 16.3359 0.960938H100.898C109.355 0.960938 116.273 7.87969 116.273 16.3359V100.898C116.273 109.355 109.355 116.273 100.898 116.273Z" fill="white"/>
<path d="M0.960938 14.5102V34.882H116.273V14.5102C116.273 7.01484 110.22 0.960938 102.724 0.960938H14.5102C7.01484 0.960937 0.960938 7.01484 0.960938 14.5102Z" fill="#D2D5D6"/>
<path d="M9.99365 17.393C9.99365 19.2025 10.7125 20.9378 11.992 22.2173C13.2715 23.4968 15.0068 24.2156 16.8163 24.2156C18.6258 24.2156 20.3612 23.4968 21.6407 22.2173C22.9202 20.9378 23.639 19.2025 23.639 17.393C23.639 15.5835 22.9202 13.8481 21.6407 12.5686C20.3612 11.2891 18.6258 10.5703 16.8163 10.5703C15.0068 10.5703 13.2715 11.2891 11.992 12.5686C10.7125 13.8481 9.99365 15.5835 9.99365 17.393Z" fill="#EC7BB0"/>
<path d="M47.4702 17.393C47.4702 18.2889 47.6467 19.1761 47.9896 20.0039C48.3324 20.8316 48.835 21.5838 49.4685 22.2173C50.1021 22.8509 50.8542 23.3534 51.682 23.6963C52.5097 24.0392 53.3969 24.2156 54.2929 24.2156C55.1888 24.2156 56.076 24.0392 56.9038 23.6963C57.7316 23.3534 58.4837 22.8509 59.1172 22.2173C59.7508 21.5838 60.2533 20.8316 60.5962 20.0039C60.9391 19.1761 61.1155 18.2889 61.1155 17.393C61.1155 15.5835 60.3967 13.8481 59.1172 12.5686C57.8377 11.2891 56.1024 10.5703 54.2929 10.5703C52.4834 10.5703 50.748 11.2891 49.4685 12.5686C48.189 13.8481 47.4702 15.5835 47.4702 17.393Z" fill="#82CFCD"/>
<path d="M54.2929 25.0805C50.0647 25.0805 46.5093 21.6211 46.5093 17.2969C46.5093 13.0688 49.9687 9.51331 54.2929 9.51331C58.521 9.51331 62.0765 12.9727 62.0765 17.2969C61.9804 21.6211 58.521 25.0805 54.2929 25.0805ZM54.2929 11.5313C51.1218 11.5313 48.4312 14.1258 48.4312 17.393C48.4312 20.6602 51.0257 23.2547 54.2929 23.2547C57.5601 23.2547 60.1546 20.6602 60.1546 17.393C60.1546 14.1258 57.464 11.5313 54.2929 11.5313Z" fill="#6A576D"/>
<path d="M28.7319 17.393C28.7319 19.2025 29.4507 20.9378 30.7302 22.2173C32.0097 23.4968 33.7451 24.2156 35.5546 24.2156C37.3641 24.2156 39.0994 23.4968 40.3789 22.2173C41.6584 20.9378 42.3772 19.2025 42.3772 17.393C42.3772 15.5835 41.6584 13.8481 40.3789 12.5686C39.0994 11.2891 37.3641 10.5703 35.5546 10.5703C33.7451 10.5703 32.0097 11.2891 30.7302 12.5686C29.4507 13.8481 28.7319 15.5835 28.7319 17.393Z" fill="#F1ED7B"/>
<path d="M16.8164 25.0805C12.5883 25.0805 9.03281 21.6211 9.03281 17.2969C9.03281 13.0688 12.4922 9.51331 16.8164 9.51331C21.0445 9.51331 24.6 12.9727 24.6 17.2969C24.6 21.6211 21.1406 25.0805 16.8164 25.0805ZM16.8164 11.5313C13.6453 11.5313 10.9547 14.1258 10.9547 17.393C10.9547 20.6602 13.5492 23.2547 16.8164 23.2547C20.0836 23.2547 22.6781 20.6602 22.6781 17.393C22.6781 14.1258 20.0836 11.5313 16.8164 11.5313ZM54.2929 25.0805C50.0647 25.0805 46.5093 21.6211 46.5093 17.2969C46.5093 13.0688 49.9687 9.51331 54.2929 9.51331C58.521 9.51331 62.0765 12.9727 62.0765 17.2969C61.9804 21.6211 58.521 25.0805 54.2929 25.0805ZM54.2929 11.5313C51.1218 11.5313 48.4312 14.1258 48.4312 17.393C48.4312 20.6602 51.0257 23.2547 54.2929 23.2547C57.5601 23.2547 60.1546 20.6602 60.1546 17.393C60.1546 14.1258 57.464 11.5313 54.2929 11.5313ZM35.5547 25.0805C31.3266 25.0805 27.7711 21.6211 27.7711 17.2969C27.7711 13.0688 31.2305 9.51331 35.5547 9.51331C39.8789 9.51331 43.3383 12.9727 43.3383 17.2969C43.3383 21.6211 39.7828 25.0805 35.5547 25.0805ZM35.5547 11.5313C32.3836 11.5313 29.693 14.1258 29.693 17.393C29.693 20.6602 32.2875 23.2547 35.5547 23.2547C38.8219 23.2547 41.4164 20.6602 41.4164 17.393C41.4164 14.1258 38.7258 11.5313 35.5547 11.5313ZM0.960938 33.9211H116.273V35.843H0.960938V33.9211ZM100.898 97.343H16.3359C15.7594 97.343 15.375 96.9586 15.375 96.3821C15.375 95.8055 15.7594 95.4211 16.3359 95.4211H100.898C101.475 95.4211 101.859 95.8055 101.859 96.3821C101.859 96.9586 101.475 97.343 100.898 97.343ZM54.7734 51.218H16.3359C15.7594 51.218 15.375 50.8336 15.375 50.2571C15.375 49.6805 15.7594 49.2961 16.3359 49.2961H54.7734C55.35 49.2961 55.7344 49.6805 55.7344 50.2571C55.7344 50.8336 55.35 51.218 54.7734 51.218ZM54.7734 66.593H16.3359C15.7594 66.593 15.375 66.2086 15.375 65.6321C15.375 65.0555 15.7594 64.6711 16.3359 64.6711H54.7734C55.35 64.6711 55.7344 65.0555 55.7344 65.6321C55.7344 66.2086 55.35 66.593 54.7734 66.593ZM54.7734 81.968H16.3359C15.7594 81.968 15.375 81.5836 15.375 81.0071C15.375 80.4305 15.7594 80.0461 16.3359 80.0461H54.7734C55.35 80.0461 55.7344 80.4305 55.7344 81.0071C55.7344 81.5836 55.35 81.968 54.7734 81.968Z" fill="#6A576D"/>
<path d="M100.898 117.234H16.3359C7.30313 117.234 0 109.931 0 100.898V16.3359C0 7.30313 7.30313 0 16.3359 0H100.898C109.931 0 117.234 7.30313 117.234 16.3359V100.898C117.234 109.931 109.931 117.234 100.898 117.234ZM16.3359 1.92188C8.36016 1.92188 1.92188 8.36016 1.92188 16.3359V100.898C1.92188 108.874 8.36016 115.312 16.3359 115.312H100.898C108.874 115.312 115.312 108.874 115.312 100.898V16.3359C115.312 8.36016 108.874 1.92188 100.898 1.92188H16.3359Z" fill="#6A576D"/>
<path d="M101.763 24.1196H73.6078C69.8602 24.1196 66.7852 21.0446 66.7852 17.2969C66.7852 13.5492 69.8602 10.4742 73.6078 10.4742H101.763C105.511 10.4742 108.586 13.5492 108.586 17.2969C108.586 21.1406 105.511 24.1196 101.763 24.1196Z" fill="white"/>
<path d="M101.763 25.0805H73.6078C69.3797 25.0805 65.8242 21.6211 65.8242 17.2969C65.8242 13.0688 69.2836 9.51331 73.6078 9.51331H101.763C105.991 9.51331 109.547 12.9727 109.547 17.2969C109.547 21.6211 106.088 25.0805 101.763 25.0805ZM73.6078 11.5313C70.4367 11.5313 67.7461 14.1258 67.7461 17.393C67.7461 20.6602 70.3406 23.2547 73.6078 23.2547H101.763C104.934 23.2547 107.625 20.6602 107.625 17.393C107.625 14.1258 105.03 11.5313 101.763 11.5313H73.6078Z" fill="#6A576D"/>
<path d="M70.1484 50.257H100.898V81.007H70.1484V50.257Z" fill="#AF5655"/>
<path d="M97.8234 81.968H73.2234C71.0133 81.968 69.1875 80.1422 69.1875 77.932V53.332C69.1875 51.1219 71.0133 49.2961 73.2234 49.2961H97.8234C100.034 49.2961 101.859 51.1219 101.859 53.332V77.932C101.859 80.1422 100.034 81.968 97.8234 81.968ZM73.2234 51.218C72.0703 51.218 71.1094 52.1789 71.1094 53.332V77.932C71.1094 79.0851 72.0703 80.0461 73.2234 80.0461H97.8234C98.9766 80.0461 99.9375 79.0851 99.9375 77.932V53.332C99.9375 52.1789 98.9766 51.218 97.8234 51.218H73.2234Z" fill="#6A576D"/>
</svg>
